<svg width="586" height="104" viewBox="0 0 586 104" fill="none" xmlns="http://www.w3.org/2000/svg">
<path d="M8.32 66.455C7.45333 66.455 6.78167 66.2167 6.305 65.74C5.87167 65.22 5.655 64.5267 5.655 63.66V22.515C5.655 21.605 5.87167 20.9117 6.305 20.435C6.78167 19.9583 7.45333 19.72 8.32 19.72C9.18667 19.72 9.83667 19.9583 10.27 20.435C10.7467 20.9117 10.985 21.605 10.985 22.515V40.455H38.48V22.515C38.48 21.605 38.6967 20.9117 39.13 20.435C39.6067 19.9583 40.2783 19.72 41.145 19.72C42.0117 19.72 42.6617 19.9583 43.095 20.435C43.5717 20.9117 43.81 21.605 43.81 22.515V63.66C43.81 64.5267 43.5717 65.22 43.095 65.74C42.6617 66.2167 42.0117 66.455 41.145 66.455C40.2783 66.455 39.6067 66.2167 39.13 65.74C38.6967 65.22 38.48 64.5267 38.48 63.66V45.07H10.985V63.66C10.985 64.5267 10.7683 65.22 10.335 65.74C9.90167 66.2167 9.23 66.455 8.32 66.455ZM68.6232 66.585C65.2866 66.585 62.4049 65.935 59.9782 64.635C57.5949 63.2917 55.7316 61.4067 54.3882 58.98C53.0882 56.5533 52.4382 53.65 52.4382 50.27C52.4382 46.9767 53.0882 44.1167 54.3882 41.69C55.6882 39.22 57.4649 37.2917 59.7182 35.905C62.0149 34.5183 64.6582 33.825 67.6482 33.825C69.7716 33.825 71.6782 34.1933 73.3682 34.93C75.0582 35.6233 76.4882 36.6417 77.6582 37.985C78.8716 39.3283 79.7816 40.9533 80.3882 42.86C81.0382 44.7667 81.3632 46.9117 81.3632 49.295C81.3632 49.9883 81.1682 50.5083 80.7782 50.855C80.3882 51.1583 79.8249 51.31 79.0882 51.31H56.4682V47.865H77.8532L76.8132 48.71C76.8132 46.37 76.4666 44.3983 75.7732 42.795C75.0799 41.1483 74.0616 39.8917 72.7182 39.025C71.4182 38.1583 69.7716 37.725 67.7782 37.725C65.5682 37.725 63.6832 38.245 62.1232 39.285C60.6066 40.2817 59.4582 41.69 58.6782 43.51C57.8982 45.2867 57.5082 47.3667 57.5082 49.75V50.14C57.5082 54.1267 58.4616 57.16 60.3682 59.24C62.3182 61.32 65.0699 62.36 68.6232 62.36C70.0966 62.36 71.5482 62.165 72.9782 61.775C74.4516 61.385 75.8816 60.735 77.2682 59.825C77.8749 59.435 78.4166 59.2617 78.8932 59.305C79.4132 59.305 79.8249 59.4567 80.1282 59.76C80.4316 60.02 80.6266 60.3667 80.7132 60.8C80.8432 61.19 80.7999 61.6233 80.5832 62.1C80.4099 62.5767 80.0416 62.9883 79.4782 63.335C78.0482 64.375 76.3582 65.1767 74.4082 65.74C72.4582 66.3033 70.5299 66.585 68.6232 66.585ZM98.928 66.585C96.7613 66.585 94.8113 66.1733 93.078 65.35C91.388 64.4833 90.0446 63.3133 89.048 61.84C88.0513 60.3667 87.553 58.72 87.553 56.9C87.553 54.56 88.138 52.7183 89.308 51.375C90.5213 50.0317 92.493 49.0783 95.223 48.515C97.9963 47.9517 101.766 47.67 106.533 47.67H109.458V51.115H106.598C103.088 51.115 100.315 51.2883 98.278 51.635C96.2846 51.9383 94.8763 52.48 94.053 53.26C93.273 54.04 92.883 55.145 92.883 56.575C92.883 58.3517 93.4896 59.8033 94.703 60.93C95.9596 62.0567 97.6496 62.62 99.773 62.62C101.506 62.62 103.023 62.2083 104.323 61.385C105.666 60.5617 106.706 59.435 107.443 58.005C108.223 56.575 108.613 54.9283 108.613 53.065V45.655C108.613 42.9683 108.071 41.04 106.988 39.87C105.905 38.6567 104.128 38.05 101.658 38.05C100.141 38.05 98.6246 38.245 97.108 38.635C95.5913 39.025 93.988 39.6533 92.298 40.52C91.6913 40.8233 91.1713 40.9317 90.738 40.845C90.3046 40.715 89.958 40.4767 89.698 40.13C89.438 39.7833 89.2863 39.3933 89.243 38.96C89.1996 38.4833 89.2863 38.0283 89.503 37.595C89.763 37.1617 90.153 36.815 90.673 36.555C92.5796 35.6017 94.4646 34.9083 96.328 34.475C98.1913 34.0417 99.968 33.825 101.658 33.825C104.388 33.825 106.641 34.28 108.418 35.19C110.195 36.0567 111.516 37.4 112.383 39.22C113.25 40.9967 113.683 43.2933 113.683 46.11V63.725C113.683 64.5917 113.466 65.2633 113.033 65.74C112.643 66.2167 112.058 66.455 111.278 66.455C110.455 66.455 109.826 66.2167 109.393 65.74C108.96 65.2633 108.743 64.5917 108.743 63.725V58.655H109.328C108.981 60.3017 108.31 61.71 107.313 62.88C106.36 64.05 105.168 64.96 103.738 65.61C102.308 66.26 100.705 66.585 98.928 66.585ZM133.071 66.585C129.951 66.585 127.567 65.6317 125.921 63.725C124.274 61.8183 123.451 59.0883 123.451 55.535V22.385C123.451 21.5183 123.667 20.8683 124.101 20.435C124.534 19.9583 125.184 19.72 126.051 19.72C126.874 19.72 127.524 19.9583 128.001 20.435C128.477 20.8683 128.716 21.5183 128.716 22.385V55.145C128.716 57.485 129.171 59.24 130.081 60.41C131.034 61.5367 132.421 62.1 134.241 62.1C134.631 62.1 134.977 62.0783 135.281 62.035C135.584 61.9917 135.887 61.97 136.191 61.97C136.667 61.9267 136.992 62.035 137.166 62.295C137.382 62.555 137.491 63.075 137.491 63.855C137.491 64.635 137.317 65.22 136.971 65.61C136.624 66 136.061 66.26 135.281 66.39C134.934 66.4333 134.566 66.4767 134.176 66.52C133.786 66.5633 133.417 66.585 133.071 66.585ZM154.788 66.585C152.318 66.585 150.238 66.1517 148.548 65.285C146.901 64.375 145.666 63.075 144.843 61.385C144.02 59.6517 143.608 57.55 143.608 55.08V38.505H139.253C138.516 38.505 137.953 38.3317 137.563 37.985C137.173 37.595 136.978 37.075 136.978 36.425C136.978 35.775 137.173 35.2767 137.563 34.93C137.953 34.5833 138.516 34.41 139.253 34.41H143.608V26.935C143.608 26.0683 143.846 25.4183 144.323 24.985C144.8 24.5083 145.45 24.27 146.273 24.27C147.096 24.27 147.725 24.5083 148.158 24.985C148.635 25.4183 148.873 26.0683 148.873 26.935V34.41H157.063C157.8 34.41 158.363 34.5833 158.753 34.93C159.143 35.2767 159.338 35.775 159.338 36.425C159.338 37.075 159.143 37.595 158.753 37.985C158.363 38.3317 157.8 38.505 157.063 38.505H148.873V54.56C148.873 57.03 149.393 58.915 150.433 60.215C151.473 61.4717 153.163 62.1 155.503 62.1C156.326 62.1 157.02 62.0133 157.583 61.84C158.19 61.6667 158.688 61.58 159.078 61.58C159.468 61.5367 159.793 61.6667 160.053 61.97C160.313 62.2733 160.443 62.7933 160.443 63.53C160.443 64.05 160.335 64.5267 160.118 64.96C159.945 65.3933 159.62 65.6967 159.143 65.87C158.623 66.0433 157.93 66.195 157.063 66.325C156.24 66.4983 155.481 66.585 154.788 66.585ZM167.818 66.455C166.952 66.455 166.302 66.2167 165.868 65.74C165.435 65.2633 165.218 64.5917 165.218 63.725V22.385C165.218 21.5183 165.435 20.8683 165.868 20.435C166.302 19.9583 166.952 19.72 167.818 19.72C168.642 19.72 169.292 19.9583 169.768 20.435C170.245 20.8683 170.483 21.5183 170.483 22.385V41.43H169.638C170.548 38.9167 172.022 37.0317 174.058 35.775C176.138 34.475 178.522 33.825 181.208 33.825C183.722 33.825 185.802 34.28 187.448 35.19C189.138 36.1 190.395 37.4867 191.218 39.35C192.042 41.17 192.453 43.4883 192.453 46.305V63.725C192.453 64.5917 192.215 65.2633 191.738 65.74C191.305 66.2167 190.677 66.455 189.853 66.455C188.987 66.455 188.315 66.2167 187.838 65.74C187.405 65.2633 187.188 64.5917 187.188 63.725V46.63C187.188 43.6833 186.603 41.5383 185.433 40.195C184.307 38.8083 182.487 38.115 179.973 38.115C177.07 38.115 174.752 39.025 173.018 40.845C171.328 42.6217 170.483 45.005 170.483 47.995V63.725C170.483 65.545 169.595 66.455 167.818 66.455ZM222.299 66.455C221.433 66.455 220.761 66.2167 220.284 65.74C219.851 65.22 219.634 64.5267 219.634 63.66V22.905C219.634 21.995 219.873 21.3233 220.349 20.89C220.826 20.4133 221.498 20.175 222.364 20.175H237.769C242.666 20.175 246.436 21.3883 249.079 23.815C251.723 26.1983 253.044 29.5783 253.044 33.955C253.044 38.2883 251.723 41.6683 249.079 44.095C246.436 46.5217 242.666 47.735 237.769 47.735H224.964V63.66C224.964 64.5267 224.748 65.22 224.314 65.74C223.881 66.2167 223.209 66.455 222.299 66.455ZM224.964 43.25H237.119C240.629 43.25 243.273 42.47 245.049 40.91C246.869 39.3067 247.779 36.9883 247.779 33.955C247.779 30.8783 246.869 28.56 245.049 27C243.273 25.3967 240.629 24.595 237.119 24.595H224.964V43.25ZM262.083 66.455C261.216 66.455 260.544 66.2167 260.068 65.74C259.634 65.2633 259.418 64.5917 259.418 63.725V36.62C259.418 35.7533 259.634 35.1033 260.068 34.67C260.501 34.1933 261.129 33.955 261.953 33.955C262.776 33.955 263.404 34.1933 263.838 34.67C264.314 35.1033 264.553 35.7533 264.553 36.62V41.885H263.903C264.596 39.3283 265.918 37.3567 267.868 35.97C269.818 34.5833 272.223 33.8467 275.083 33.76C275.733 33.7167 276.253 33.8683 276.643 34.215C277.033 34.5183 277.249 35.06 277.293 35.84C277.336 36.5767 277.163 37.1617 276.773 37.595C276.383 38.0283 275.776 38.2883 274.953 38.375L273.913 38.505C270.966 38.765 268.691 39.7183 267.088 41.365C265.528 42.9683 264.748 45.1783 264.748 47.995V63.725C264.748 64.5917 264.509 65.2633 264.033 65.74C263.599 66.2167 262.949 66.455 262.083 66.455ZM295.463 66.585C292.386 66.585 289.721 65.9133 287.468 64.57C285.214 63.2267 283.459 61.3417 282.203 58.915C280.989 56.445 280.383 53.5417 280.383 50.205C280.383 47.6917 280.729 45.4383 281.423 43.445C282.116 41.4083 283.134 39.675 284.478 38.245C285.821 36.815 287.403 35.7317 289.223 34.995C291.086 34.215 293.166 33.825 295.463 33.825C298.539 33.825 301.204 34.4967 303.458 35.84C305.711 37.1833 307.444 39.09 308.658 41.56C309.914 43.9867 310.543 46.8683 310.543 50.205C310.543 52.7183 310.196 54.9717 309.503 56.965C308.809 58.9583 307.791 60.6917 306.448 62.165C305.104 63.595 303.501 64.7 301.638 65.48C299.818 66.2167 297.759 66.585 295.463 66.585ZM295.463 62.36C297.413 62.36 299.124 61.8833 300.598 60.93C302.071 59.9767 303.198 58.59 303.978 56.77C304.801 54.95 305.213 52.7617 305.213 50.205C305.213 46.2617 304.324 43.25 302.548 41.17C300.814 39.09 298.453 38.05 295.463 38.05C293.469 38.05 291.736 38.5267 290.263 39.48C288.833 40.39 287.706 41.755 286.883 43.575C286.103 45.3517 285.713 47.5617 285.713 50.205C285.713 54.105 286.601 57.1167 288.378 59.24C290.154 61.32 292.516 62.36 295.463 62.36Z" fill="#003078"/>
<path d="M380.073 31.0672H369.468V20.0966C369.468 17.2863 367.258 15 364.542 15H347.458C344.742 15 342.532 17.2863 342.532 20.0966V31.0672H331.927C329.21 31.0672 327 33.3536 327 36.1638V53.8362C327 56.6464 329.21 58.9328 331.927 58.9328H342.532V69.9034C342.532 72.7137 344.742 75 347.458 75H364.542C367.258 75 369.468 72.7137 369.468 69.9034V58.9328H380.073C382.79 58.9328 385 56.6464 385 53.8362V36.1638C385 33.3536 382.79 31.0672 380.073 31.0672ZM367.005 53.8361C365.645 53.8361 364.542 54.977 364.542 56.3843L364.545 69.903C364.545 69.903 364.544 69.9032 364.542 69.9032H347.458V56.3843C347.458 54.977 346.355 53.8361 344.995 53.8361H331.927V36.1638H344.995C346.355 36.1638 347.458 35.0229 347.458 33.6156V20.0966H364.542V33.6156C364.542 35.0229 365.645 36.1638 367.005 36.1638H380.073V53.8362H367.005V53.8361Z" fill="#C60000"/>
<path d="M209.964 43.6325L207.036 45.2656V42H204.964V45.2656L202.036 43.6325L201 45.3672L203.927 46.9997L201 48.6323L202.036 50.367L204.964 48.7344V52H207.036V48.7344L209.964 50.367L211 48.6323L208.073 46.9997L211 45.3672L209.964 43.6325Z" fill="#C60000"/>
</svg>
