<svg width="58" height="60" viewBox="0 0 58 60" fill="none" xmlns="http://www.w3.org/2000/svg">
<path d="M53.0733 16.0672H42.4683V5.0966C42.4683 2.28633 40.2582 0 37.5417 0H20.4584C17.7418 0 15.5317 2.28633 15.5317 5.0966V16.0672H4.92671C2.21012 16.0672 0 18.3536 0 21.1638V38.8362C0 41.6464 2.21012 43.9328 4.92671 43.9328H15.5317V54.9034C15.5317 57.7137 17.7418 60 20.4584 60H37.5416C40.2582 60 42.4683 57.7137 42.4683 54.9034V43.9328H53.0733C55.7899 43.9328 58 41.6464 58 38.8362V21.1638C58 18.3536 55.7899 16.0672 53.0733 16.0672ZM40.005 38.8361C38.6447 38.8361 37.5417 39.977 37.5417 41.3843L37.5449 54.903C37.5449 54.903 37.5439 54.9032 37.5417 54.9032H20.4584V41.3843C20.4584 39.977 19.3555 38.8361 17.9951 38.8361H4.92671V21.1638H17.9951C19.3555 21.1638 20.4584 20.0229 20.4584 18.6156V5.0966H37.5416V18.6156C37.5416 20.0229 38.6445 21.1638 40.0049 21.1638H53.0733V38.8362L40.005 38.8361Z" fill="#C60000"/>
</svg>
